<svg width="120" height="30" viewBox="0 0 120 30" fill="none" xmlns="http://www.w3.org/2000/svg">
<path d="M3 11.3559C5.97488 10.3645 9.22887 9.60582 12.7388 9.23661C23.0876 8.14927 29.2988 11.1395 35.6761 14.4232C41.5863 17.4648 47.6382 20.7538 57.26 21.2813C68.0703 21.8723 76.0269 18.5697 83.394 15.1426C92.7952 10.7689 101.234 6.19231 113.418 9.23661C114.662 9.54767 115.855 9.91418 116.999 10.3294" stroke="black" stroke-width="4.07143" stroke-miterlimit="10" stroke-linecap="round"/>
<path d="M3 18.7043C5.56916 19.4684 8.33301 20.0526 11.2752 20.3623C22.4123 21.5308 28.7583 17.978 35.6761 14.4225C41.1425 11.6122 46.967 8.80046 55.7964 8.319C67.3256 7.68877 75.6089 11.4877 83.394 15.1433C92.2206 19.2885 100.406 23.2484 111.954 20.3637C113.738 19.916 115.421 19.3534 117 18.7083" stroke="black" stroke-width="4.07143" stroke-miterlimit="10" stroke-linecap="round"/>
<g opacity="0.5">
<path d="M3 12.5053C5.97488 11.5139 9.22887 10.7552 12.7388 10.386C23.0876 9.29868 29.2988 12.2889 35.6761 15.5726C41.5863 18.6142 47.6382 21.9033 57.26 22.4307C68.0703 23.0217 76.0269 19.7191 83.394 16.2921C92.7952 11.9183 101.234 7.34172 113.418 10.386C114.662 10.6971 115.855 11.0636 116.999 11.4788" stroke="black" stroke-width="4.07143" stroke-miterlimit="10" stroke-linecap="round"/>
<path d="M3 19.8537C5.56916 20.6178 8.33301 21.202 11.2752 21.5117C22.4123 22.6802 28.7583 19.1274 35.6761 15.5719C41.1425 12.7616 46.967 9.94988 55.7964 9.46842C67.3256 8.83819 75.6089 12.6371 83.394 16.2927C92.2206 20.4379 100.406 24.3978 111.954 21.5131C113.738 21.0654 115.421 20.5028 117 19.8577" stroke="black" stroke-width="4.07143" stroke-miterlimit="10" stroke-linecap="round"/>
</g>
</svg>
