<svg width="160" height="160" viewBox="0 0 160 160" fill="none" xmlns="http://www.w3.org/2000/svg">
<path d="M12 75.7052C15.549 74.5226 19.4309 73.6175 23.6183 73.177C35.9642 71.8798 43.374 75.4471 50.982 79.3645C58.0328 82.993 65.2526 86.9169 76.7312 87.5461C89.6277 88.2512 99.1198 84.3112 107.909 80.2228C119.124 75.005 129.191 69.5452 143.727 73.177C145.211 73.5481 146.634 73.9853 147.998 74.4807" stroke="black" stroke-width="4.85714" stroke-miterlimit="10" stroke-linecap="round"/>
<path d="M12 84.4717C15.065 85.3833 18.3622 86.0803 21.8722 86.4498C35.1585 87.8438 42.7292 83.6053 50.982 79.3637C57.5033 76.011 64.4519 72.6567 74.9851 72.0823C88.7393 71.3305 98.6212 75.8626 107.909 80.2236C118.439 85.1687 128.204 89.8928 141.981 86.4514C144.108 85.9174 146.116 85.2462 148 84.4766" stroke="black" stroke-width="4.85714" stroke-miterlimit="10" stroke-linecap="round"/>
<g opacity="0.5">
<path d="M12 77.0768C15.549 75.8942 19.4309 74.9891 23.6183 74.5486C35.9642 73.2514 43.374 76.8187 50.982 80.736C58.0328 84.3646 65.2526 88.2884 76.7312 88.9177C89.6277 89.6227 99.1198 85.6828 107.909 81.5944C119.124 76.3766 129.191 70.9168 143.727 74.5486C145.211 74.9197 146.634 75.3569 147.998 75.8522" stroke="black" stroke-width="4.85714" stroke-miterlimit="10" stroke-linecap="round"/>
<path d="M12 85.8433C15.065 86.7549 18.3622 87.4519 21.8722 87.8214C35.1585 89.2154 42.7292 84.9769 50.982 80.7352C57.5033 77.3826 64.4519 74.0283 74.9851 73.4539C88.7393 72.702 98.6212 77.2341 107.909 81.5952C118.439 86.5403 128.204 91.2644 141.981 87.823C144.108 87.2889 146.116 86.6178 148 85.8482" stroke="black" stroke-width="4.85714" stroke-miterlimit="10" stroke-linecap="round"/>
</g>
</svg>
