<svg width="60" height="15" viewBox="0 0 60 15" fill="none" xmlns="http://www.w3.org/2000/svg">
<path d="M1.5 5.67793C2.98744 5.18227 4.61444 4.80291 6.36941 4.61831C11.5438 4.07463 14.6494 5.56974 17.838 7.21158C20.7932 8.73238 23.8191 10.3769 28.63 10.6406C34.0351 10.9361 38.0135 9.28484 41.697 7.57132C46.3976 5.38445 50.6169 3.09615 56.7089 4.61831C57.3311 4.77384 57.9275 4.95709 58.4993 5.16469" stroke="white" stroke-width="2.03571" stroke-miterlimit="10" stroke-linecap="round"/>
<path d="M1.5 9.35213C2.78458 9.73419 4.1665 10.0263 5.63761 10.1812C11.2062 10.7654 14.3791 8.989 17.838 7.21124C20.5713 5.80608 23.4835 4.40023 27.8982 4.1595C33.6628 3.84439 37.8045 5.74386 41.697 7.57166C46.1103 9.64425 50.203 11.6242 55.9771 10.1818C56.8689 9.95801 57.7103 9.67671 58.5 9.35415" stroke="white" stroke-width="2.03571" stroke-miterlimit="10" stroke-linecap="round"/>
<g opacity="0.5">
<path d="M1.5 6.25264C2.98744 5.75697 4.61444 5.37762 6.36941 5.19301C11.5438 4.64934 14.6494 6.14444 17.838 7.78628C20.7932 9.30708 23.8191 10.9516 28.63 11.2153C34.0351 11.5109 38.0135 9.85955 41.697 8.14603C46.3976 5.95916 50.6169 3.67086 56.7089 5.19301C57.3311 5.34854 57.9275 5.53179 58.4993 5.73939" stroke="white" stroke-width="2.03571" stroke-miterlimit="10" stroke-linecap="round"/>
<path d="M1.5 9.92683C2.78458 10.3089 4.1665 10.601 5.63761 10.7559C11.2062 11.3401 14.3791 9.56371 17.838 7.78595C20.5713 6.38078 23.4835 4.97494 27.8982 4.73421C33.6628 4.41909 37.8045 6.31857 41.697 8.14637C46.1103 10.219 50.203 12.1989 55.9771 10.7565C56.8689 10.5327 57.7103 10.2514 58.5 9.92886" stroke="white" stroke-width="2.03571" stroke-miterlimit="10" stroke-linecap="round"/>
</g>
</svg>
